<?xml version="1.0" encoding="UTF-8" standalone="no"?>
<svg width="231px" height="149px" viewBox="0 0 231 149" version="1.1" xmlns="http://www.w3.org/2000/svg" xmlns:xlink="http://www.w3.org/1999/xlink" xmlns:sketch="http://www.bohemiancoding.com/sketch/ns">
    <!-- Generator: Sketch 3.3.3 (12072) - http://www.bohemiancoding.com/sketch -->
    <title>logo</title>
    <desc>Created with Sketch.</desc>
    <defs></defs>
    <g id="Page-1" stroke="none" stroke-width="1" fill="none" fill-rule="evenodd" sketch:type="MSPage">
        <g id="header" sketch:type="MSArtboardGroup" transform="translate(-37.000000, -34.000000)" fill="#F75E50">
            <g id="SOLDA-+-Rectangle-1-+-Rectangle-1-Copy" sketch:type="MSLayerGroup" transform="translate(37.000000, 34.000000)">
                <rect id="Rectangle-1" sketch:type="MSShapeGroup" transform="translate(11.366559, 11.673267) rotate(-50.000000) translate(-11.366559, -11.673267) " x="0" y="7.13366337" width="22.733119" height="9.07920792"></rect>
                <path d="M31.550869,65.9715173 C32.821619,67.2422673 36.799619,70.2257673 43.982119,70.2257673 C52.103869,70.2257673 57.021119,64.4797673 57.021119,58.7890173 C57.021119,51.2750173 50.170119,47.9047673 45.860619,46.1920173 C41.495869,44.4240173 39.838369,42.8770173 39.838369,40.8327673 C39.838369,39.3410173 41.330119,38.0150173 43.319119,38.0150173 C46.689369,38.0150173 50.722619,41.0537673 51.219869,41.3300173 C51.717119,41.7167673 52.711619,41.2195173 53.098369,40.6117673 L55.916119,36.3575173 C56.137119,35.9707673 56.247619,34.9762673 55.584619,34.5895173 C53.927119,33.3740173 49.507119,30.4457673 43.761119,30.4457673 C35.252619,30.4457673 30.998369,35.9707673 30.998369,41.4405173 C30.998369,48.0705173 36.965369,51.7722673 41.716869,53.6507673 C45.473869,55.1425173 47.407619,56.9105173 47.407619,59.2310173 C47.407619,61.1647673 45.805369,62.5460173 43.595369,62.5460173 C39.948869,62.5460173 35.970869,59.6177673 35.749869,59.5072673 C35.363119,59.2310173 34.313369,59.1205173 33.871369,59.8387673 L31.274619,64.4245173 C30.832619,65.1980173 30.998369,65.4190173 31.550869,65.9715173 L31.550869,65.9715173 Z M60.943869,50.3910173 C60.943869,61.4410173 69.728619,70.2257673 80.778619,70.2257673 C91.828619,70.2257673 100.668619,61.4410173 100.668619,50.3910173 C100.668619,39.3410173 91.828619,30.4457673 80.778619,30.4457673 C69.728619,30.4457673 60.943869,39.3410173 60.943869,50.3910173 L60.943869,50.3910173 Z M69.783869,50.3910173 C69.783869,44.3135173 74.756369,39.2857673 80.778619,39.2857673 C86.856119,39.2857673 91.828619,44.3135173 91.828619,50.3910173 C91.828619,56.4132673 86.856119,61.3857673 80.778619,61.3857673 C74.756369,61.3857673 69.783869,56.4132673 69.783869,50.3910173 L69.783869,50.3910173 Z M107.353869,68.6235173 C107.353869,69.1760173 107.795869,69.6732673 108.403619,69.6732673 L129.177619,69.6732673 C129.785369,69.6732673 130.227369,69.1760173 130.227369,68.6235173 L130.227369,62.6012673 C130.227369,62.0487673 129.785369,61.5515173 129.177619,61.5515173 L116.028119,61.5515173 L116.028119,32.0480173 C116.028119,31.4955173 115.530869,30.9982673 114.978369,30.9982673 L108.403619,30.9982673 C107.795869,30.9982673 107.353869,31.4955173 107.353869,32.0480173 L107.353869,68.6235173 Z M135.586619,68.6235173 C135.586619,69.1760173 136.028619,69.6732673 136.581119,69.6732673 L150.062119,69.6732673 C160.725369,69.6732673 169.454869,60.9990173 169.454869,50.2805173 C169.454869,39.6725173 160.725369,30.9982673 150.062119,30.9982673 L136.581119,30.9982673 C136.028619,30.9982673 135.586619,31.4955173 135.586619,32.0480173 L135.586619,68.6235173 Z M144.205619,61.4962673 L144.205619,39.1200173 L149.509619,39.1200173 C155.752869,39.1200173 160.283369,44.0372673 160.283369,50.2805173 C160.283369,56.5790173 155.752869,61.4962673 149.509619,61.4962673 L144.205619,61.4962673 Z M172.162119,69.6732673 L178.239619,69.6732673 C179.344619,69.6732673 179.952369,69.0102673 180.228619,68.3472673 L182.217619,63.9272673 L197.245619,63.9272673 L199.234619,68.2920173 C199.731869,69.3417673 200.173869,69.6732673 201.168369,69.6732673 L207.301119,69.6732673 C208.129869,69.6732673 208.571869,68.9550173 208.240369,68.2367673 L190.947119,31.0535173 C190.781369,30.7220173 190.394619,30.4457673 190.007869,30.4457673 L189.455369,30.4457673 C189.068619,30.4457673 188.681869,30.7220173 188.516119,31.0535173 L171.222869,68.2367673 C170.891369,68.9550173 171.333369,69.6732673 172.162119,69.6732673 L172.162119,69.6732673 Z M185.532619,56.4132673 L189.676369,47.2970173 L189.731619,47.2970173 L193.930619,56.4132673 L185.532619,56.4132673 Z M33.484619,128.423517 C33.484619,128.976017 33.926619,129.473267 34.534369,129.473267 L41.053869,129.473267 C41.606369,129.473267 42.103619,128.976017 42.103619,128.423517 L42.103619,115.439767 L47.904869,115.439767 C54.645369,115.439767 60.225619,109.859517 60.225619,103.008517 C60.225619,96.3232673 54.645369,90.7982673 47.849619,90.7982673 L34.534369,90.7982673 C33.926619,90.7982673 33.484619,91.2955173 33.484619,91.8480173 L33.484619,128.423517 Z M42.103619,107.373267 L42.103619,98.9200173 L47.352369,98.9200173 C49.728119,98.9200173 51.717119,100.688017 51.717119,103.008517 C51.717119,105.494767 49.728119,107.373267 47.352369,107.373267 L42.103619,107.373267 Z M66.026869,128.423517 C66.026869,128.976017 66.524119,129.473267 67.076619,129.473267 L73.706619,129.473267 C74.259119,129.473267 74.756369,128.976017 74.756369,128.423517 L74.756369,91.8480173 C74.756369,91.2955173 74.259119,90.7982673 73.706619,90.7982673 L67.076619,90.7982673 C66.524119,90.7982673 66.026869,91.2955173 66.026869,91.8480173 L66.026869,128.423517 Z M81.441619,110.191017 C81.441619,121.241017 90.336869,130.025767 101.386869,130.025767 C106.304119,130.025767 111.055619,128.313017 114.812619,124.666517 C115.199369,124.279767 115.254619,123.561517 114.867869,123.174767 L110.558369,118.589017 C110.226869,118.202267 109.508619,118.202267 109.121869,118.533767 C107.132869,120.246517 104.315119,121.185767 101.718369,121.185767 C95.475119,121.185767 90.834119,116.102767 90.834119,109.970017 C90.834119,103.782017 95.419869,98.5885173 101.663119,98.5885173 C104.370369,98.5885173 107.077619,99.5830173 109.121869,101.406267 C109.508619,101.793017 110.116369,101.793017 110.503119,101.406267 L114.812619,96.9310173 C115.254619,96.4890173 115.254619,95.8260173 114.757369,95.3840173 C111.000369,91.9585173 106.911869,90.2457673 101.386869,90.2457673 C90.336869,90.2457673 81.441619,99.1410173 81.441619,110.191017 L81.441619,110.191017 Z M121.442619,128.147267 C121.442619,128.865517 121.995119,129.473267 122.768619,129.473267 L129.232869,129.473267 C129.951119,129.473267 130.558869,128.865517 130.558869,128.147267 L130.558869,111.682767 L143.321619,129.031267 C143.432119,129.197017 143.929369,129.418017 144.316119,129.418017 L151.940619,129.418017 C152.990369,129.418017 153.598119,128.202517 152.990369,127.373767 L138.901619,109.030767 L151.830119,92.8425173 C152.437869,92.0137673 151.885369,90.7982673 150.835619,90.7982673 L143.874119,90.7982673 C143.542619,90.7982673 143.045369,91.0745173 142.824369,91.3507673 L130.558869,106.655017 L130.558869,92.1242673 C130.558869,91.4060173 129.951119,90.7982673 129.232869,90.7982673 L122.768619,90.7982673 C121.995119,90.7982673 121.442619,91.4060173 121.442619,92.1242673 L121.442619,128.147267 Z M156.692119,125.771517 C157.962869,127.042267 161.940869,130.025767 169.123369,130.025767 C177.245119,130.025767 182.162369,124.279767 182.162369,118.589017 C182.162369,111.075017 175.311369,107.704767 171.001869,105.992017 C166.637119,104.224017 164.979619,102.677017 164.979619,100.632767 C164.979619,99.1410173 166.471369,97.8150173 168.460369,97.8150173 C171.830619,97.8150173 175.863869,100.853767 176.361119,101.130017 C176.858369,101.516767 177.852869,101.019517 178.239619,100.411767 L181.057369,96.1575173 C181.278369,95.7707673 181.388869,94.7762673 180.725869,94.3895173 C179.068369,93.1740173 174.648369,90.2457673 168.902369,90.2457673 C160.393869,90.2457673 156.139619,95.7707673 156.139619,101.240517 C156.139619,107.870517 162.106619,111.572267 166.858119,113.450767 C170.615119,114.942517 172.548869,116.710517 172.548869,119.031017 C172.548869,120.964767 170.946619,122.346017 168.736619,122.346017 C165.090119,122.346017 161.112119,119.417767 160.891119,119.307267 C160.504369,119.031017 159.454619,118.920517 159.012619,119.638767 L156.415869,124.224517 C155.973869,124.998017 156.139619,125.219017 156.692119,125.771517 L156.692119,125.771517 Z" id="SOLDA" sketch:type="MSShapeGroup"></path>
            </g>
        </g>
    </g>
</svg>