<?xml version="1.0" encoding="UTF-8" standalone="no"?>
<svg width="260px" height="260px" viewBox="0 0 260 260" version="1.1" xmlns="http://www.w3.org/2000/svg" xmlns:xlink="http://www.w3.org/1999/xlink" xmlns:sketch="http://www.bohemiancoding.com/sketch/ns">
    <!-- Generator: Sketch 3.3.3 (12072) - http://www.bohemiancoding.com/sketch -->
    <title>logo2</title>
    <desc>Created with Sketch.</desc>
    <defs></defs>
    <g id="Page-1" stroke="none" stroke-width="1" fill="none" fill-rule="evenodd" sketch:type="MSPage">
        <g id="logo2" sketch:type="MSArtboardGroup">
            <g id="Oval-2-Copy-4-+-Rectangle-129" sketch:type="MSLayerGroup" transform="translate(3.000000, 33.000000)">
                <path d="M194.982668,50.2746432 C176.504432,20.2483917 143.337326,0.228750066 105.494383,0.228750066 C97.3524974,0.228750066 89.4270528,1.15544434 81.8177701,2.90911207 C35.2305738,13.6457959 0.494383059,55.380737 0.494383059,105.22875 C0.494383059,163.218649 47.5044843,210.22875 105.494383,210.22875 C163.484282,210.22875 210.494383,163.218649 210.494383,105.22875 C210.494383,88.6473449 206.650863,72.9636419 199.806139,59.0199568 L178.314139,61.278857 L178.314139,61.278857 L178.314139,152.663213 L177.580465,152.663213 L177.591297,152.766266 L158.145036,154.81015 L157.183208,145.658969 L169.11255,144.405144 L169.11255,144.405144 L169.11255,62.245983 L146.702578,64.601366 L145.74075,55.4501843 L194.982672,50.2746498 Z M62.8771951,110.402565 L62.8771951,90.8465638 L83.3511152,88.6946681 L82.3892872,79.5434865 L62.8771951,81.59429 L62.8771951,62.64197 L83.280588,56.7913912 L80.7442863,47.9462563 L33.2016861,61.5788775 L35.7379877,70.4240125 L53.6756062,65.2804831 L53.6756062,82.561416 L53.6756062,82.561416 L33.2016861,84.7133117 L34.163514,93.8644933 L53.6756062,91.8136898 L53.6756062,111.369691 L26.6000679,114.215445 L27.5618958,123.366626 L53.6756062,120.621965 L53.6756062,155.474248 L39.4521675,156.969192 L40.4139955,166.120374 L61.9846359,163.853208 L62.8771951,163.853208 L62.8771951,119.654839 L89.3323717,116.874288 L88.3705438,107.723106 L62.8771951,110.402565 Z M127.7054,118.008699 L127.7054,151.513014 L127.543658,151.513014 L127.560808,151.676181 L109.258444,153.599837 L108.296616,144.448656 L118.503811,143.375836 L118.503811,120.647212 L107.669976,123.753765 L105.133674,114.90863 L118.503811,111.074805 L118.503811,80.6491607 L104.057313,82.1675489 L103.095485,73.0163672 L118.503811,71.3968869 L118.503811,44.5445437 L127.7054,44.5445437 L127.7054,70.429761 L141.0017,69.0322636 L141.963528,78.1834452 L127.7054,79.6820348 L127.7054,108.436291 L137.389037,105.659553 L139.925339,114.504688 L127.7054,118.008699 Z" id="Oval-2-Copy-4" fill="#FF5E6F" sketch:type="MSShapeGroup"></path>
                <path d="M84.6665745,177.637863 L134.392669,172.41144 L135.333425,181.362137 L85.6073307,186.58856 L84.6665745,177.637863 L84.6665745,177.637863 Z" id="Rectangle-129" opacity="0.5" fill="#FFFFFF" sketch:type="MSShapeGroup"></path>
            </g>
            <path d="M39.9033934,43.9839127 C40.5146024,44.0753542 42.2245651,44.0866555 44.2103164,42.6177472 C46.4557429,40.9567509 46.6400922,38.3625126 45.4762648,36.7891865 C43.9395607,34.7117851 41.3562025,35.181122 39.8144736,35.5889417 C38.2461703,35.9927857 37.4715398,35.9040642 37.0534658,35.3388888 C36.7483849,34.9264636 36.8896271,34.2547824 37.4395275,33.8480077 C38.3713031,33.1587508 40.1078401,33.1740278 40.3018116,33.1487092 C40.5183818,33.1539406 40.6916383,32.8130782 40.6742711,32.5659581 L40.583251,30.8135182 C40.5652559,30.661396 40.3924187,30.3638472 40.1300235,30.3925137 C39.4231887,30.3954423 37.6023252,30.4898103 36.0137242,31.664937 C33.6613726,33.4050284 33.6151263,35.8025751 34.7337564,37.3148011 C36.0896718,39.1478023 38.4964257,38.9509042 40.1942526,38.4985152 C41.5380342,38.1425884 42.434237,38.2359134 42.9088074,38.8774639 C43.3042827,39.4120892 43.1437898,40.121644 42.5327894,40.5736158 C41.5246387,41.3193693 39.8259753,41.323343 39.7422767,41.3379901 C39.5788552,41.3407101 39.2660314,41.5248467 39.2907221,41.8138162 L39.5106381,43.6127089 C39.5466281,43.9169534 39.6376503,43.9441556 39.9033934,43.9839127 L39.9033934,43.9839127 Z M46.3616011,33.3350099 C48.3153725,36.5942701 52.4597326,37.6321339 55.7189929,35.6783626 C58.9782532,33.7245912 60.0324132,29.5704622 58.0786419,26.311202 C56.1248706,23.0519417 51.9446764,21.9912542 48.6854161,23.9450255 C45.4261558,25.8987968 44.4078298,30.0757496 46.3616011,33.3350099 L46.3616011,33.3350099 Z M48.9690094,31.7719928 C47.8944351,29.9793996 48.4721363,27.6172391 50.2484332,26.5524337 C52.0410263,25.4778595 54.3966594,26.0816259 55.4712336,27.874219 C56.536039,29.6505159 55.948569,31.9963801 54.1559758,33.0709543 C52.379679,34.1357597 50.0338147,33.5482897 48.9690094,31.7719928 L48.9690094,31.7719928 Z M64.6165044,31.2258392 C64.6909949,31.4006282 64.8978675,31.4983458 65.0901353,31.4164063 L71.6621989,28.6155644 C71.8544667,28.5336249 71.9272564,28.3167224 71.852766,28.1419335 L71.0408198,26.2367342 C70.9663293,26.0619453 70.7594567,25.9642276 70.5671889,26.0461672 L66.4072125,27.8190405 L62.429421,18.4853118 C62.3549305,18.3105229 62.1305791,18.2202543 61.9557901,18.2947448 L59.8758019,19.1811814 C59.6835341,19.263121 59.6107444,19.4800234 59.6852349,19.6548123 L64.6165044,31.2258392 Z M74.5416712,27.6830399 C74.5998537,27.8639123 74.7969158,27.9801514 74.9777881,27.9219689 L79.3910728,26.502316 C82.8819086,25.3793938 84.8262261,21.6204149 83.6974857,18.1114918 C82.5803818,14.6387432 78.8091339,12.7183312 75.3182981,13.8412534 L70.9050134,15.2609063 C70.7241411,15.3190888 70.6318074,15.5284198 70.6899899,15.7092922 L74.5416712,27.6830399 Z M76.6127252,24.44214 L74.2563341,17.116811 L75.9927084,16.558259 C78.0365657,15.9007968 80.0375429,17.033464 80.6950051,19.0773212 C81.3582856,21.1392657 80.3929568,23.2261259 78.3490995,23.8835881 L76.6127252,24.44214 Z M87.5174594,24.900975 L89.572312,24.5192937 C89.9459216,24.4498971 90.1097689,24.1875632 90.1615333,23.9460483 L90.5564442,22.3266962 L95.6375343,21.3829024 L96.5841481,22.7337463 C96.8181992,23.0574469 96.988462,23.1417711 97.3247106,23.0793142 L99.3982437,22.694163 C99.6784509,22.6421156 99.782787,22.3715107 99.6255963,22.1494835 L91.4434108,10.6635783 C91.3665503,10.5619049 91.2184378,10.4927913 91.0876745,10.5170801 L90.9008697,10.5517784 C90.7701064,10.5760672 90.6566922,10.6937584 90.6214697,10.8162508 L87.1096757,24.4742697 C87.0427006,24.7379349 87.2372522,24.9530225 87.5174594,24.900975 L87.5174594,24.900975 Z M91.205376,19.5779613 L92.0338898,16.2354451 L92.0525703,16.2319752 L94.0448087,19.0505471 L91.205376,19.5779613 Z M107.168313,22.6351698 C107.173085,22.8251099 107.329332,22.9922386 107.538266,22.9869898 L109.779558,22.930684 C109.969499,22.9259123 110.13615,22.7506718 110.131378,22.5607317 L110.019244,18.09714 L112.013615,18.0470374 C114.330884,17.9888229 116.201084,16.0222343 116.141916,13.6669774 C116.084178,11.3687025 114.118067,9.5174957 111.781804,9.57618732 L107.204248,9.69118473 C106.995314,9.69643357 106.847657,9.87119698 106.852428,10.061137 L107.168313,22.6351698 Z M109.949578,15.3240149 L109.876571,12.4179318 L111.681002,12.3726009 C112.497744,12.3520827 113.196798,12.9427129 113.216839,13.7404612 C113.238311,14.5951915 112.570751,15.2581658 111.754008,15.278684 L109.949578,15.3240149 Z M119.109077,23.1067495 C119.094554,23.2961936 119.251984,23.4797636 119.441428,23.494286 L121.714758,23.6685547 C121.904203,23.6830771 122.087773,23.5256475 122.102295,23.3362033 L123.063678,10.7949981 C123.0782,10.6055539 122.92077,10.421984 122.731326,10.4074616 L120.457996,10.2331929 C120.268552,10.2186705 120.084982,10.3761001 120.070459,10.5655443 L119.109077,23.1067495 Z M126.053606,17.620106 C125.532474,21.3842024 128.148272,24.79617 131.912369,25.3173017 C133.587392,25.5492053 135.286728,25.189857 136.738495,24.1248899 C136.888478,24.0113862 136.941172,23.7693256 136.827668,23.6193426 L135.57594,21.8540012 C135.481257,21.7066239 135.23659,21.6727503 135.089213,21.7674336 C134.3309,22.2570649 133.32676,22.4441245 132.442197,22.3216585 C130.315482,22.0272191 128.974283,20.0768595 129.263511,17.987786 C129.555344,15.879892 131.362376,14.3270363 133.489091,14.6214757 C134.411294,14.749153 135.286596,15.2155989 135.896967,15.9330842 C136.010471,16.0830672 136.217496,16.1117294 136.367479,15.9982256 L138.046535,14.6770079 C138.217944,14.5472894 138.249212,14.3214436 138.100673,14.1474288 C136.982431,12.8033741 135.670491,12.0271205 133.788443,11.7665546 C130.024346,11.245423 126.574738,13.8560096 126.053606,17.620106 L126.053606,17.620106 Z M139.504955,26.7236085 C139.442454,26.9625699 139.573385,27.212846 139.830728,27.2801552 L141.981381,27.8426672 C142.220342,27.9051686 142.475426,27.7558562 142.537928,27.5168947 L143.970651,22.0391626 L146.707164,28.9216019 C146.729504,28.9863624 146.875708,29.1031592 147.004379,29.1368137 L149.541047,29.8002895 C149.890299,29.8916376 150.198268,29.540127 150.068187,29.2115165 L146.977054,21.8828205 L152.687045,17.6220208 C152.96136,17.3991818 152.883315,16.9467075 152.534063,16.8553594 L150.217975,16.2495771 C150.107685,16.2207304 149.918211,16.2693685 149.820646,16.3420455 L144.40816,20.3664324 L145.67261,15.5320581 C145.735112,15.2930966 145.585799,15.0380127 145.346838,14.9755114 L143.196184,14.4129993 C142.938841,14.3456902 142.702139,14.4998104 142.639638,14.7387718 L139.504955,26.7236085 Z M152.090241,30.1305924 C152.33715,30.6971377 153.23516,32.1523624 155.534054,33.0556806 C158.133574,34.077125 160.430087,32.8564348 161.145793,31.0350029 C162.090803,28.6300055 160.321875,26.6896669 159.157945,25.5994781 C157.98328,24.4846568 157.647327,23.7810523 157.904425,23.1267515 C158.092037,22.6492888 158.736266,22.4124897 159.372883,22.6626394 C160.451595,23.086504 161.36034,24.5663612 161.484751,24.7173176 C161.595265,24.9036416 161.976111,24.8695622 162.176332,24.7236806 L163.613249,23.7164063 C163.732624,23.6204141 163.893067,23.3160028 163.729501,23.1088329 C163.351856,22.5113312 162.305428,21.0182015 160.466312,20.2955469 C157.743006,19.2254624 155.686493,20.4588005 154.998582,22.2094972 C154.16475,24.3315537 155.609044,26.2668175 156.893599,27.4656466 C157.908485,28.4156142 158.305063,29.224697 158.013222,29.9674168 C157.770021,30.5863499 157.083476,30.8269356 156.376123,30.5489916 C155.208992,30.0903839 154.304034,28.652843 154.247196,28.5896809 C154.158153,28.4526217 153.836058,28.2852307 153.604255,28.4595313 L152.196383,29.6007029 C151.957632,29.7926873 151.982889,29.8842683 152.090241,30.1305924 L152.090241,30.1305924 Z M168.903372,39.8621082 C168.861519,40.0130926 168.937586,40.1872012 169.069841,40.2621186 L169.334351,40.4119533 C169.450074,40.477506 169.61262,40.4603993 169.718404,40.389302 L176.557356,35.3321344 L176.606951,35.3602284 L175.802135,43.8355007 C175.795542,43.962786 175.864442,44.110998 175.980165,44.1765507 L176.244675,44.3263854 C176.37693,44.4013028 176.565373,44.3770289 176.673354,44.2635032 L186.090937,34.9240047 C186.28817,34.7300171 186.249562,34.489781 186.018116,34.3586756 L184.083886,33.2630092 C183.951631,33.1880918 183.753823,33.2288976 183.655207,33.3258914 L179.058842,38.124836 L178.992715,38.0873773 L179.726638,30.8166328 C179.749762,30.6987122 179.697394,30.5598648 179.548607,30.4755827 L179.251034,30.3070187 C179.118779,30.2321013 178.972764,30.2585727 178.86698,30.3296699 L173.008175,34.6973667 L172.942048,34.659908 L174.69493,28.2502401 C174.727419,28.1157876 174.660716,27.9251471 174.528461,27.8502298 L172.594232,26.7545633 C172.362785,26.623458 172.136884,26.7138594 172.071906,26.9827643 L168.903372,39.8621082 Z M181.567963,48.5647038 C181.450148,48.7137659 181.463364,48.9421742 181.627332,49.0717712 L187.798504,53.9493314 C187.962472,54.0789284 188.187756,54.0390249 188.305571,53.8899627 L189.58976,52.2651856 C189.707575,52.1161235 189.694359,51.8877152 189.530391,51.7581182 L185.40137,48.4946298 L186.991879,46.4822912 L190.390495,49.1684838 C190.539558,49.2862992 190.767966,49.2730834 190.897563,49.1091151 L192.181751,47.484338 C192.299567,47.3352758 192.271445,47.095086 192.122383,46.9772706 L188.723766,44.291078 L190.184678,42.4427077 L194.313699,45.706196 C194.477667,45.835793 194.702951,45.7958895 194.820766,45.6468274 L196.104955,44.0220502 C196.22277,43.8729881 196.209555,43.6445798 196.045586,43.5149828 L189.874414,38.6374226 C189.710446,38.5078256 189.485162,38.5477291 189.367347,38.6967912 L181.567963,48.5647038 Z M190.45404,56.5856548 C190.321553,56.7218428 190.311265,56.9504016 190.461072,57.0961374 L196.099255,62.5811029 C196.249062,62.7268387 196.477251,62.7102592 196.609738,62.5740712 L198.053847,61.0896219 C198.186334,60.9534339 198.196622,60.7248751 198.046816,60.5791393 L194.274408,56.9092469 L196.062984,55.0707089 L199.16807,58.0914145 C199.304258,58.2239016 199.532817,58.2341896 199.678553,58.0843828 L201.122662,56.5999336 C201.255149,56.4637456 201.251818,56.221938 201.11563,56.0894509 L198.010544,53.0687453 L199.653384,51.3800141 L203.425791,55.0499065 C203.575598,55.1956423 203.803787,55.1790627 203.936274,55.0428747 L205.380383,53.5584255 C205.51287,53.4222375 205.523158,53.1936786 205.373352,53.0479428 L199.735168,47.5629774 C199.585362,47.4172416 199.357173,47.4338211 199.224686,47.5700091 L190.45404,56.5856548 Z M198.541574,65.4121828 C198.352095,65.5706344 198.313653,65.8504615 198.484293,66.0545152 L199.910357,67.7598216 C200.068809,67.9493001 200.363211,67.9755536 200.55269,67.8171021 L204.89612,64.1849044 L203.135048,71.3790064 C203.1157,71.4447227 203.167096,71.6246544 203.252416,71.7266813 L204.93444,73.7380684 C205.166023,74.0149985 205.620754,73.9071776 205.705308,73.5640209 L207.436209,65.800718 L214.558891,65.640076 C214.911594,65.6175752 215.110364,65.2036737 214.878781,64.9267436 L213.34302,63.0902598 C213.269888,63.0028082 213.087315,62.9325737 212.965684,62.9352155 L206.222469,63.0757434 L210.055765,59.8701461 C210.245243,59.7116945 210.271497,59.4172922 210.113045,59.2278137 L208.686981,57.5225073 C208.516341,57.3184535 208.234127,57.3067752 208.044649,57.4652268 L198.541574,65.4121828 Z M206.425677,76.5288095 C206.266671,76.6328143 206.206769,76.8536236 206.321174,77.0285306 L210.231755,83.0071669 C210.34616,83.1820739 210.57247,83.2156746 210.731476,83.1116697 L212.464645,81.9780173 C212.623651,81.8740125 212.683553,81.6532031 212.569148,81.4782962 L210.093833,77.6939466 L218.584769,72.1400897 C218.743775,72.0360849 218.793276,71.7993749 218.689272,71.6403686 L217.451614,69.7481938 C217.337209,69.5732869 217.1109,69.5396862 216.951893,69.643691 L206.425677,76.5288095 Z M212.403275,87.0165153 C212.236185,87.1069637 212.158163,87.3220393 212.257656,87.5058383 L213.333992,89.49421 C213.42444,89.6613001 213.656225,89.7302776 213.823315,89.6398292 L219.153488,86.7545252 L226.743631,87.4854107 C227.033206,87.5014999 227.228192,87.2231104 227.083474,86.9557663 L225.907645,84.7835956 C225.826242,84.6332145 225.706517,84.6116027 225.612547,84.597655 L220.929968,84.1292954 L223.098081,79.9525515 C223.137783,79.8662451 223.176104,79.7374759 223.103745,79.6038038 L221.927916,77.4316331 C221.783198,77.164289 221.443495,77.1753344 221.298637,77.4265893 L217.716739,84.1402562 L212.403275,87.0165153 Z M219.891984,102.156378 C220.403916,103.56738 221.992558,104.324981 223.349977,103.832489 C224.760979,103.320556 225.5121,101.714054 225.000167,100.303052 C224.507675,98.9456328 222.907653,98.2123725 221.496651,98.7243051 C220.139232,99.2167972 219.399491,100.798958 219.891984,102.156378 L219.891984,102.156378 Z M239.626055,123.844189 C237.96236,120.409194 236.519212,116.083373 235.292276,110.848226 L233.696464,111.866219 C234.195042,113.993575 234.732931,115.955599 235.27747,117.779462 L232.946627,118.32573 L231.498583,112.147147 L229.611711,112.589364 L231.059755,118.767947 L228.61792,119.340228 L226.810032,111.626249 L224.941658,112.064131 L226.749546,119.77811 L223.549262,120.528145 C223.160788,120.619189 222.896606,120.407897 222.783884,119.926929 C222.584452,119.075987 222.417683,118.197875 222.274905,117.255595 L220.510582,118.137447 L221.182579,121.004753 C221.494732,122.336663 222.284102,122.873711 223.542017,122.5789 L227.20477,121.720478 L228.856581,128.768502 L230.724954,128.330621 L229.073143,121.282597 L231.514978,120.710316 L232.84163,126.370933 L234.728502,125.928716 L233.401851,120.268099 L235.899182,119.682811 C236.624081,121.776641 237.403611,123.603974 238.219274,125.169146 L239.626055,123.844189 Z M232.561934,139.201305 C232.135716,138.427005 231.727348,137.63262 231.358032,136.854971 L234.525553,136.668589 L234.658364,138.925685 L236.57405,138.812963 L236.441239,136.555867 L239.627728,136.368369 L239.509426,134.357847 L236.322937,134.545345 L236.159993,131.776135 L234.244306,131.888857 L234.407251,134.658067 L230.537943,134.885743 C230.174201,133.879371 229.848393,132.870768 229.579487,131.858816 L227.711785,132.463569 C228.009697,133.321551 228.325461,134.15945 228.641224,134.997349 L224.658113,135.231721 C224.240835,135.256275 223.999836,135.042061 223.974167,134.605816 C223.942917,134.074734 223.946254,133.484519 223.986409,132.873105 L222.097508,133.441039 L222.212462,135.39466 C222.290586,136.722364 222.974532,137.348269 224.264302,137.272377 L229.461312,136.966577 C229.812778,137.76431 230.201062,138.540843 230.589346,139.317376 L232.561934,139.201305 Z M238.60801,139.092972 L236.673356,139.20681 L236.957952,144.043444 L225.350029,144.726473 C224.856882,144.75549 224.598032,144.56136 224.575711,144.182016 C224.521024,143.252623 224.500923,142.264097 224.516525,141.235405 L222.626508,141.784372 L222.815122,144.989828 C222.888782,146.241662 223.609547,146.846369 224.956217,146.767129 L237.076254,146.053967 L237.244779,148.918013 L239.179432,148.804175 L238.60801,139.092972 Z M224.899473,162.54756 L225.470312,163.260845 C225.980091,162.801248 226.638788,162.033188 227.207252,161.216886 L226.771535,165.144793 C225.925937,165.012759 225.252391,164.880694 224.652287,164.775892 L224.899473,162.54756 Z M227.362268,159.819458 L226.709577,158.982394 C226.266986,159.697959 225.646058,160.470209 225.062867,161.074595 L225.521628,156.938962 C226.18889,157.12768 226.87713,157.299608 227.619928,157.496705 L227.362268,159.819458 Z M231.241963,160.517459 L230.572483,159.659416 C230.169755,160.360287 229.590785,161.098958 229.026479,161.705439 L229.443344,157.947489 C230.131584,158.119418 230.80094,158.289251 231.472391,158.440201 L231.241963,160.517459 Z M228.863085,163.178404 L229.433923,163.891689 C229.924819,163.429997 230.562536,162.678727 231.089043,161.896004 L230.663799,165.72949 C229.910527,165.626814 229.251676,165.534612 228.613804,165.42562 L228.863085,163.178404 Z M226.140876,170.140719 L228.142598,170.362767 L228.444249,167.643447 C229.3465,167.781766 230.305403,167.926369 231.396495,168.085635 C231.660873,168.114963 232.376377,168.213449 232.376377,168.213449 L233.616497,157.034021 C234.050895,157.426306 234.487388,157.799707 234.961649,158.177297 L233.623073,170.244281 L235.624795,170.46633 L236.833493,159.570165 C237.209113,159.802997 237.584732,160.035829 237.943562,160.247683 L238.83281,158.090574 C236.616892,156.869821 234.419734,154.962954 233.158375,153.064311 C232.812268,153.599414 232.042393,154.508073 231.631224,154.940376 C232.050958,155.46485 232.548324,155.97882 233.062479,156.513768 C232.036418,156.285249 230.880264,156.023182 229.763972,155.746421 L230.084476,152.857143 L228.082754,152.635095 L227.793672,155.24111 C226.32696,154.849011 224.935785,154.465291 223.846757,154.115088 L222.719755,164.27477 C222.463756,164.169907 222.321062,164.077612 222.216136,163.989506 C221.970611,163.790221 221.951696,163.616074 221.987308,163.295043 C222.012414,162.896381 222.112995,162.161993 222.282798,161.320585 C221.760388,161.549383 220.996673,161.71318 220.50359,161.677599 C220.342197,162.615523 220.235362,163.578616 220.26275,164.193383 C220.285947,164.845919 220.41823,165.376739 220.976437,165.859225 C221.236657,166.098372 221.692003,166.301816 222.470475,166.521986 L222.21072,168.863623 L224.174673,169.081482 L224.40929,166.966455 C225.007299,167.090142 225.664056,167.201228 226.450906,167.345862 L226.140876,170.140719 Z M228.769682,186.892437 L227.734279,186.574898 L228.430637,184.304279 L229.46604,184.621818 L228.769682,186.892437 Z M226.458551,190.734672 L227.188335,188.355063 L228.223737,188.672603 L227.493954,191.052211 L226.458551,190.734672 Z M224.608911,187.564001 L225.735138,187.909394 L225.005355,190.289003 L223.879128,189.943609 L224.608911,187.564001 Z M226.523317,183.719338 L226.977441,183.85861 L226.281083,186.129229 L225.154856,185.783835 L225.851214,183.513216 L226.523317,183.719338 Z M219.550579,185.913334 L220.107666,184.096839 L221.688017,184.581504 L221.13093,186.397999 L219.550579,185.913334 Z M222.425932,189.49794 L217.812034,188.08294 C217.57589,188.010519 217.507349,187.910005 217.57977,187.673861 L217.77475,187.038087 L221.970854,188.324957 L223.441562,183.52941 L219.245458,182.24254 L218.075577,186.05718 C217.488966,186.155505 216.659188,186.139508 216.128286,186.056184 C215.760609,187.255071 215.522514,188.096229 215.658621,188.754047 C215.801752,189.453766 216.218332,189.780258 217.162909,190.069943 L228.624994,193.585159 L231.811528,183.194807 L227.124971,181.757524 C224.872517,181.066736 221.746693,180.048482 219.79797,178.496919 C219.447742,178.926093 218.684316,179.665762 218.258524,179.952521 C219.839591,181.21247 222.262791,182.253724 224.40916,183.031217 L222.425932,189.49794 Z M229.756005,180.954666 C230.620661,180.921739 231.958819,180.835292 233.027408,180.785414 L233.047783,178.645332 C232.008501,178.664451 230.579518,178.723043 229.689674,178.708499 L229.756005,180.954666 Z M224.805449,179.535787 L224.809329,179.199128 L225.015451,178.527025 C226.111396,179.359968 227.38342,180.266784 228.501648,181.027067 L229.872081,176.558488 L227.946596,175.967977 L227.356084,177.893462 C226.132985,177.021523 224.842796,176.109136 223.953689,175.379374 L223.324181,177.432013 C222.207405,176.731796 221.124054,175.922589 220.353625,175.129857 C220.133716,174.486085 219.760012,173.69578 219.242441,172.920973 L216.731538,173.720926 C217.638811,174.456259 218.684618,175.452686 218.556488,175.87048 C218.450642,176.215614 217.650647,176.685714 216.998877,177.320512 C215.834847,178.394412 215.17265,179.840824 214.431725,182.256762 C213.779934,184.382062 212.932187,187.599924 212.56063,189.135469 C213.130767,189.350067 214.078488,190.018311 214.581774,190.450888 C214.909501,188.345445 215.725036,185.03821 216.365686,182.94924 C217.017477,180.823941 217.644557,179.168026 218.768139,178.161214 C219.209191,177.759895 219.587512,177.498324 219.863866,177.245228 C221.03271,178.358882 222.554924,179.421921 224.127277,180.321475 L224.805449,179.535787 Z M218.843294,200.13671 C219.872285,200.507076 221.537506,200.933483 222.832016,201.207514 L223.222091,199.652006 C221.936438,199.361165 220.272121,198.892283 219.244034,198.479441 L218.843294,200.13671 Z M208.257596,202.741497 C208.517689,202.900016 208.777783,203.058535 209.037876,203.217054 L206.770519,207.520261 L205.963668,207.095131 L208.257596,202.741497 Z M208.854885,208.618512 L208.064843,208.202239 L210.3322,203.899033 L211.122242,204.315305 L208.854885,208.618512 Z M209.343047,211.238093 L213.532344,203.287247 L210.540271,201.710725 C209.229138,201.01989 207.702195,200.086488 207.039235,198.491562 C206.625862,198.74623 205.546975,199.122712 205.043411,199.222477 C205.446463,200.250937 206.200891,201.142394 207.069554,201.857805 L204.669344,206.413153 L203.963349,206.041164 C203.778446,205.943739 203.746636,205.841074 203.861775,205.622552 C203.968057,205.420839 204.340045,204.714844 204.684559,204.101753 C204.132375,204.089997 203.336003,203.971054 202.829912,203.790299 C202.255121,204.840435 201.872467,205.64819 201.832331,206.335753 C201.774482,207.056935 202.131815,207.438498 202.972285,207.881342 L209.343047,211.238093 Z M213.081838,209.277938 L213.821452,209.66764 L212.067793,212.995901 L213.395735,213.695594 L215.149394,210.367332 L215.82177,210.721607 L213.890974,214.386056 L215.319773,215.13889 L217.250569,211.47444 L218.477656,212.120991 L219.496195,210.18791 L218.269109,209.541359 L220.10248,206.061813 L219.732673,205.866962 L220.991597,204.618918 C220.147696,203.93803 219.022557,202.894197 218.258368,202.062025 L222.561575,204.329382 L223.482689,202.581204 L217.918777,199.649582 L219.052456,197.497979 L217.203422,196.523724 L216.069743,198.675327 L215.111607,198.170486 L215.900399,197.447868 C214.746881,196.539415 213.536977,195.085826 213.033972,193.96175 C212.311886,193.946376 211.226137,193.846769 210.549239,193.704873 C211.000911,194.844854 212.129481,196.126732 213.363429,197.249372 L207.799518,194.31775 L206.878404,196.065927 L213.131501,199.360681 C212.120037,199.364643 210.736054,199.301182 209.947635,199.207905 L210.728978,201.230301 C211.274114,201.173915 213.523702,200.898848 214.087455,200.766368 L213.971971,199.803524 L215.148629,200.423505 L214.200944,202.222111 L216.049979,203.196366 L216.997663,201.39776 L217.888561,201.867174 L216.883773,202.755173 C217.487821,203.524443 218.433296,204.623943 219.312438,205.645541 L218.673681,205.30898 L216.84031,208.788526 L216.167934,208.434251 L217.779883,205.37494 L216.451941,204.675248 L214.839991,207.734559 L214.100378,207.344857 L216.066601,203.61317 L214.637802,202.860336 L209.607103,212.408076 L211.035902,213.16091 L213.081838,209.277938 Z M197.480346,222.732176 L196.15767,224.399183 L195.249747,223.678797 L196.572422,222.01179 L197.480346,222.732176 Z M192.025725,227.742127 L193.938881,225.33092 L194.846805,226.051306 L193.394223,227.882037 L194.689131,228.909473 L196.141712,227.078742 L196.930564,227.704651 L198.24143,226.052527 L197.452578,225.426618 L198.775254,223.759611 L199.564105,224.38552 L200.839542,222.778049 L200.050691,222.15214 L201.479653,220.351176 L200.184745,219.323741 L198.755783,221.124704 L197.84786,220.404318 L199.690158,218.082415 L198.39525,217.05498 L196.293141,219.704331 C196.354434,218.710031 196.708381,217.438596 197.15778,216.291406 C196.612587,216.489436 195.58076,216.689418 195.035078,216.76579 C194.672396,218.078802 194.415366,219.839457 194.509549,221.126899 L195.820757,220.299691 L193.506074,223.216953 L193.622365,221.878223 C192.45546,222.431859 191.044749,222.864812 190.173084,223.046347 L189.650582,225.202721 C190.527908,224.952914 191.819546,224.425485 192.974642,223.886733 L190.730818,226.714692 L192.025725,227.742127 Z M200.253598,231.311459 L199.583818,230.780027 L200.670302,229.4107 L201.340081,229.942132 L200.253598,231.311459 Z M196.205981,229.045821 C195.887122,229.447688 195.562602,229.917827 195.448068,230.215019 C195.810945,230.430179 196.337545,230.775244 196.733264,231.040716 C196.847798,230.743524 197.222631,230.240542 197.447013,229.957746 L198.663402,228.424695 C198.911404,228.112131 199.107482,228.170691 199.50935,228.489551 L199.598654,228.560408 L197.33121,231.418135 L200.159169,233.66196 L203.524906,229.420021 L200.637411,227.128958 C199.357388,226.113332 198.60333,226.02437 197.528656,227.378813 L196.205981,229.045821 Z M204.023936,226.590159 L203.354156,226.058727 L204.42883,224.704283 L205.09861,225.235715 L204.023936,226.590159 Z M202.642751,223.287131 L203.357182,223.853992 L201.113358,226.681951 L203.941317,228.925775 L207.271625,224.728489 L204.428782,222.472855 C203.833422,222.000471 203.781157,221.546679 203.851039,221.214059 C203.361331,221.189317 202.496937,220.9643 202.080673,220.755289 C202.005131,221.156181 201.719602,221.73002 199.830895,225.058033 C200.119839,225.335802 200.590954,225.903639 200.841884,226.321026 L202.642751,223.287131 Z M205.997067,222.11642 C206.843991,222.424592 208.178036,222.852471 209.206155,223.207394 L210.049956,221.257444 C209.018763,220.875828 207.625182,220.40071 206.786994,220.050961 L205.997067,222.11642 Z M202.186912,218.389905 L202.343023,218.101448 L202.472929,217.937724 C203.243187,219.106728 204.150476,220.408713 204.956164,221.533065 L207.684182,218.094862 L206.106479,216.843044 L205.079043,218.137952 C204.189713,216.874471 203.294233,215.557603 202.675889,214.533388 L201.246927,216.334351 C200.390927,215.242842 199.661757,213.960914 199.33348,212.75453 C199.322305,212.187815 199.245446,211.520475 199.09724,210.820781 L196.48239,210.662131 C197.035538,211.707379 197.622504,213.046255 197.362692,213.373703 C197.114691,213.686267 196.198373,213.832374 195.371848,214.170997 C193.884619,214.761525 192.728888,215.881875 191.170021,217.846562 C189.788297,219.587989 187.802185,222.305124 186.908218,223.584659 C187.360886,223.992334 187.999776,224.960087 188.322538,225.531486 C189.395261,223.690409 191.34853,220.922963 192.706634,219.211303 C194.076548,217.48476 195.275955,216.156522 196.701061,215.61372 C197.323261,215.379773 197.809407,215.256163 198.185704,215.118157 C198.844015,216.489388 199.852418,217.847346 200.967107,219.071348 L202.186912,218.389905 Z" id="SOLDA-PICKS-WEEKLY-•" fill="#FF5E6F" sketch:type="MSShapeGroup"></path>
        </g>
    </g>
</svg>