<?xml version="1.0" encoding="UTF-8" standalone="no"?>
<svg width="40px" height="33px" viewBox="0 0 40 33" version="1.1" xmlns="http://www.w3.org/2000/svg" xmlns:xlink="http://www.w3.org/1999/xlink" xmlns:sketch="http://www.bohemiancoding.com/sketch/ns">
    <!-- Generator: Sketch 3.3.3 (12072) - http://www.bohemiancoding.com/sketch -->
    <title>solda-logo</title>
    <desc>Created with Sketch.</desc>
    <defs></defs>
    <g id="Page-1" stroke="none" stroke-width="1" fill="none" fill-rule="evenodd" sketch:type="MSPage">
        <g id="logo-copy" sketch:type="MSArtboardGroup" transform="translate(-77.000000, -101.000000)" fill-opacity="0.886916893" fill="#FFFFFF">
            <path d="M116.895932,113.580157 L77.0533711,113.580157 C77.0181987,113.826699 77,114.078731 77,114.335025 C77,117.253343 79.3595422,119.619108 82.2701849,119.619108 C84.4873445,119.619108 86.3847272,118.24637 87.1629986,116.302337 L87.1629986,116.302337 C87.9412699,118.24637 89.8386526,119.619108 92.0558122,119.619108 C94.2980964,119.619108 96.2133154,118.215082 96.9746515,116.236029 L96.9746515,116.236029 C97.7359875,118.215082 99.6512065,119.619108 101.893491,119.619108 C104.11065,119.619108 106.008033,118.24637 106.786304,116.302337 L106.786304,116.302337 C107.564576,118.24637 109.461958,119.619108 111.679118,119.619108 C114.589761,119.619108 116.949303,117.253343 116.949303,114.335025 C116.949303,114.078731 116.931104,113.826699 116.895932,113.580157 L116.895932,113.580157 L116.895932,113.580157 Z M82.7142857,101 L77,112.361417 L117,112.361417 L111.285714,101 L82.7142857,101 L82.7142857,101 Z M80.7515843,121.103257 L80.7515843,130.96787 C80.7515843,132.642469 82.1048217,134 83.7717312,134 L110.938028,134 C112.606009,134 113.958175,132.638923 113.958175,130.96787 L113.958175,121.103257 L112.448784,121.103257 L112.448784,130.96787 C112.448784,131.802038 111.771324,132.482736 110.938028,132.482736 L83.7717312,132.482736 C82.9375626,132.482736 82.2609748,131.80363 82.2609748,130.96787 L82.2609748,121.103257 L80.7515843,121.103257 L80.7515843,121.103257 Z M90.4020998,126.795525 C91.8670271,128.513414 93.9766511,129.547553 96.7879413,129.547553 C99.5871494,129.547553 101.766941,128.532495 103.367995,126.847033 C104.329121,125.835237 104.887937,124.820575 105.136882,124.111635 L103.711374,123.610957 C103.670451,123.727497 103.569247,123.959249 103.399633,124.267223 C103.111089,124.791142 102.737747,125.316671 102.272635,125.806304 C100.946305,127.202558 99.1553871,128.03653 96.7879413,128.03653 C94.4325776,128.03653 92.7374795,127.205592 91.5516703,125.815019 C91.1360652,125.327648 90.8138207,124.80393 90.5750941,124.281558 C90.4347608,123.974486 90.3554115,123.743775 90.3256607,123.628966 L88.8631179,124.00804 C89.0505606,124.731387 89.5224707,125.764003 90.4020998,126.795525 L90.4020998,126.795525 L90.4020998,126.795525 Z" id="solda-logo" sketch:type="MSShapeGroup"></path>
        </g>
    </g>
</svg>